<?xml version="1.0" encoding="utf-8"?>
<!-- Generator: Adobe Illustrator 27.1.1, SVG Export Plug-In . SVG Version: 6.00 Build 0)  -->
<svg version="1.1" id="Layer_1" xmlns="http://www.w3.org/2000/svg" xmlns:xlink="http://www.w3.org/1999/xlink" x="0px" y="0px"
	 viewBox="0 0 800 800" style="enable-background:new 0 0 800 800;" xml:space="preserve">
<style type="text/css">
	.st0{fill:#FF4500;}
	.st1{fill:#FFFFFF;}
</style>
<g transform="translate(-0.000000, 0.000000)">
	<circle class="st0" cx="137.5" cy="399.8" r="137.5"/>
	<path class="st1" d="M229.3,399.8c0-11.2-9-20-20-20c-5.4,0-10.3,2.1-14,5.6c-13.8-9.8-32.7-16.2-53.7-17.1l9.2-43l29.9,6.4
		c0.3,7.6,6.6,13.6,14.3,13.6c7.9,0,14.3-6.4,14.3-14.3c0-7.9-6.4-14.3-14.3-14.3c-5.6,0-10.5,3.3-12.8,8l-33.3-7.1
		c-1-0.2-2,0-2.6,0.5c-0.8,0.5-1.3,1.3-1.5,2.3l-10.2,47.9c-21.3,0.7-40.5,7.1-54.5,17.1c-3.6-3.4-8.5-5.6-14-5.6
		c-11.2,0-20,9-20,20c0,8.2,4.9,15.1,11.8,18.2c-0.3,2-0.5,3.9-0.5,6.1c0,30.9,35.9,56,80.3,56s80.3-24.9,80.3-56
		c0-2-0.2-4.1-0.5-6.1C224.4,415,229.3,408,229.3,399.8z M91.7,414.1c0-7.9,6.4-14.3,14.3-14.3c7.9,0,14.3,6.4,14.3,14.3
		s-6.4,14.3-14.3,14.3C98.1,428.5,91.7,421.9,91.7,414.1z M171.7,452c-9.8,9.8-28.6,10.5-34,10.5c-5.6,0-24.3-0.8-34-10.5
		c-1.5-1.5-1.5-3.8,0-5.3c1.5-1.5,3.8-1.5,5.3,0c6.2,6.2,19.4,8.4,28.7,8.4c9.4,0,22.6-2.1,28.7-8.4c1.5-1.5,3.8-1.5,5.3,0
		C173,448.2,173,450.5,171.7,452z M169.1,428.5c-7.9,0-14.3-6.4-14.3-14.3c0-7.9,6.4-14.3,14.3-14.3c7.9,0,14.3,6.4,14.3,14.3
		C183.3,421.9,176.9,428.5,169.1,428.5z"/>
</g>
<g>
	<g>
		<path d="M304.3,428.5c-1.2,0-2.3-0.4-3.1-1.3c-0.8-0.9-1.2-1.9-1.2-3.1V377c0-1.3,0.4-2.4,1.2-3.2c0.8-0.8,1.9-1.2,3.1-1.2
			c1.3,0,2.3,0.4,3.1,1.2c0.8,0.8,1.2,1.9,1.2,3.2v14.2l-1.3-2.3c0.4-2.2,1.2-4.4,2.3-6.6c1.1-2.1,2.5-4,4.3-5.7c1.7-1.7,3.7-3,6-4
			c2.2-1,4.7-1.5,7.4-1.5c1.6,0,3,0.4,4.4,1.1c1.3,0.8,2,1.8,2,3.2c0,1.5-0.4,2.7-1.2,3.4c-0.8,0.8-1.7,1.1-2.7,1.1
			c-0.9,0-1.8-0.2-2.7-0.6s-1.9-0.6-3.2-0.6c-1.8,0-3.6,0.5-5.4,1.5c-1.8,1-3.4,2.4-4.9,4.2c-1.5,1.8-2.7,3.8-3.6,6.1
			c-0.9,2.3-1.4,4.7-1.4,7.3v26.3c0,1.2-0.4,2.3-1.2,3.1C306.6,428.1,305.5,428.5,304.3,428.5z"/>
		<path d="M369.3,429.6c-5.8,0-10.9-1.2-15.3-3.7c-4.3-2.5-7.7-5.8-10.1-10.1c-2.4-4.3-3.6-9.3-3.6-14.9c0-6.3,1.2-11.6,3.7-16.1
			c2.5-4.4,5.7-7.8,9.7-10.2c4-2.3,8.2-3.5,12.7-3.5c3.3,0,6.5,0.6,9.6,1.8c3.1,1.2,5.8,3,8.2,5.4c2.4,2.4,4.3,5.2,5.7,8.4
			c1.4,3.2,2.2,6.9,2.3,11c0,1.2-0.4,2.1-1.3,2.9c-0.9,0.8-1.9,1.1-3,1.1h-42.8l-1.9-7.5H385l-1.7,1.5v-2.4c-0.2-3-1.2-5.5-2.9-7.6
			c-1.7-2.1-3.8-3.8-6.2-4.9c-2.4-1.2-5-1.7-7.6-1.7c-2.2,0-4.3,0.4-6.4,1.2c-2.1,0.8-4,2-5.7,3.7c-1.7,1.7-3.1,3.8-4.1,6.5
			c-1,2.7-1.6,5.9-1.6,9.6c0,4.2,0.8,7.9,2.5,11c1.7,3.2,4.1,5.7,7.1,7.5s6.6,2.8,10.6,2.8c2.5,0,4.7-0.3,6.6-1
			c1.9-0.7,3.5-1.5,4.8-2.4c1.3-1,2.5-2,3.4-3c0.9-0.6,1.9-1,2.8-1c1,0,1.9,0.4,2.6,1.1c0.7,0.7,1.1,1.6,1.1,2.6
			c0,1.2-0.6,2.3-1.7,3.4c-2.1,2.2-4.9,4.2-8.3,5.8C376.8,428.7,373.2,429.6,369.3,429.6z"/>
		<path d="M451.5,348.4c1.2,0,2.3,0.4,3.1,1.2c0.8,0.8,1.2,1.9,1.2,3.2v71.2c0,1.2-0.4,2.3-1.2,3.1c-0.8,0.9-1.9,1.3-3.1,1.3
			c-1.3,0-2.4-0.4-3.2-1.3c-0.8-0.9-1.2-1.9-1.2-3.1v-10.3l2.1-0.7c0,1.7-0.5,3.4-1.6,5.4c-1,1.9-2.5,3.7-4.4,5.4
			c-1.9,1.7-4.1,3.1-6.7,4.1c-2.5,1-5.3,1.6-8.2,1.6c-4.9,0-9.3-1.3-13.2-3.8c-3.9-2.5-7-6-9.3-10.4c-2.3-4.4-3.4-9.4-3.4-15.1
			c0-5.7,1.1-10.8,3.4-15.2c2.3-4.4,5.3-7.9,9.2-10.3c3.9-2.5,8.2-3.7,13-3.7c3,0,5.9,0.5,8.5,1.5c2.6,1,5,2.4,7,4.1
			c2,1.7,3.6,3.6,4.7,5.7c1.1,2.1,1.7,4.2,1.7,6.3l-2.8-0.6v-35.3c0-1.2,0.4-2.3,1.2-3.1C449.2,348.8,450.2,348.4,451.5,348.4z
			 M429.2,421.6c3.6,0,6.8-0.9,9.5-2.8s4.9-4.4,6.5-7.6c1.6-3.2,2.4-6.8,2.4-10.9c0-4-0.8-7.7-2.4-10.9c-1.6-3.2-3.8-5.7-6.5-7.6
			c-2.7-1.8-5.9-2.8-9.5-2.8c-3.5,0-6.7,0.9-9.5,2.8c-2.8,1.8-5,4.4-6.6,7.6c-1.6,3.2-2.4,6.8-2.4,10.9c0,4,0.8,7.6,2.4,10.8
			c1.6,3.2,3.8,5.8,6.6,7.6C422.5,420.6,425.7,421.6,429.2,421.6z"/>
		<path d="M518,348.4c1.2,0,2.3,0.4,3.1,1.2c0.8,0.8,1.2,1.9,1.2,3.2v71.2c0,1.2-0.4,2.3-1.2,3.1c-0.8,0.9-1.9,1.3-3.1,1.3
			c-1.3,0-2.4-0.4-3.2-1.3c-0.8-0.9-1.2-1.9-1.2-3.1v-10.3l2.1-0.7c0,1.7-0.5,3.4-1.6,5.4c-1,1.9-2.5,3.7-4.4,5.4
			c-1.9,1.7-4.1,3.1-6.7,4.1c-2.5,1-5.3,1.6-8.2,1.6c-4.9,0-9.3-1.3-13.2-3.8c-3.9-2.5-7-6-9.3-10.4c-2.3-4.4-3.4-9.4-3.4-15.1
			c0-5.7,1.1-10.8,3.4-15.2c2.3-4.4,5.3-7.9,9.2-10.3c3.9-2.5,8.2-3.7,13-3.7c3,0,5.9,0.5,8.5,1.5c2.6,1,5,2.4,7,4.1
			c2,1.7,3.6,3.6,4.7,5.7c1.1,2.1,1.7,4.2,1.7,6.3l-2.8-0.6v-35.3c0-1.2,0.4-2.3,1.2-3.1C515.7,348.8,516.7,348.4,518,348.4z
			 M495.7,421.6c3.6,0,6.8-0.9,9.5-2.8s4.9-4.4,6.5-7.6c1.6-3.2,2.4-6.8,2.4-10.9c0-4-0.8-7.7-2.4-10.9c-1.6-3.2-3.8-5.7-6.5-7.6
			c-2.7-1.8-5.9-2.8-9.5-2.8c-3.5,0-6.7,0.9-9.5,2.8c-2.8,1.8-5,4.4-6.6,7.6c-1.6,3.2-2.4,6.8-2.4,10.9c0,4,0.8,7.6,2.4,10.8
			c1.6,3.2,3.8,5.8,6.6,7.6C489,420.6,492.2,421.6,495.7,421.6z"/>
		<path d="M547.9,424.1c0,1.2-0.4,2.3-1.3,3.1s-1.9,1.3-3.1,1.3c-1.2,0-2.3-0.4-3.1-1.3c-0.8-0.9-1.2-1.9-1.2-3.1v-71.2
			c0-1.2,0.4-2.3,1.3-3.1s1.9-1.3,3.1-1.3c1.3,0,2.3,0.4,3.1,1.3c0.8,0.9,1.2,1.9,1.2,3.1V424.1z"/>
		<path d="M606.6,372.5c1.3,0,2.3,0.4,3.1,1.2c0.8,0.8,1.2,1.9,1.2,3.2v29.5c0,7.3-2,12.9-6.1,16.9c-4.1,4-9.8,6-17.1,6
			c-7.2,0-12.9-2-16.9-6c-4.1-4-6.1-9.7-6.1-16.9V377c0-1.3,0.4-2.4,1.2-3.2c0.8-0.8,1.9-1.2,3.1-1.2c1.3,0,2.3,0.4,3.1,1.2
			c0.8,0.8,1.2,1.9,1.2,3.2v29.5c0,4.9,1.3,8.6,3.8,11.2c2.5,2.5,6.1,3.8,10.6,3.8c4.6,0,8.2-1.3,10.7-3.8c2.5-2.5,3.8-6.2,3.8-11.2
			V377c0-1.3,0.4-2.4,1.2-3.2C604.2,372.9,605.3,372.5,606.6,372.5z"/>
		<path d="M651.7,371.1c3.8,0,7.1,0.4,10.1,1.2c3,0.8,5.3,1.9,7,3.2c1.7,1.4,2.6,2.9,2.6,4.7c0,1-0.3,1.9-1,2.8
			c-0.6,0.9-1.6,1.3-2.7,1.3c-0.9,0-1.7-0.2-2.3-0.6c-0.6-0.4-1.2-0.9-1.7-1.4c-0.5-0.5-1.3-1.1-2.2-1.6c-0.9-0.4-2.1-0.8-3.8-1.1
			c-1.7-0.3-3.3-0.5-5-0.5c-4,0-7.5,0.9-10.4,2.8c-3,1.9-5.4,4.4-7.1,7.6c-1.7,3.2-2.6,6.8-2.6,10.8c0,4,0.8,7.7,2.5,10.8
			c1.7,3.2,4,5.7,6.9,7.6c3,1.9,6.4,2.8,10.3,2.8c2.5,0,4.5-0.2,6-0.6c1.5-0.4,2.8-0.9,3.8-1.5c1.2-0.7,2.2-1.4,2.9-2.2
			c0.7-0.7,1.6-1.1,2.9-1.1c1.2,0,2.2,0.4,2.9,1.2c0.7,0.8,1,1.8,1,2.9c0,1.4-0.9,2.8-2.7,4.2c-1.8,1.4-4.3,2.7-7.4,3.6
			c-3.1,1-6.6,1.5-10.4,1.5c-5.5,0-10.3-1.3-14.4-3.8c-4.1-2.6-7.3-6.1-9.6-10.5c-2.3-4.4-3.4-9.4-3.4-14.9c0-5.5,1.2-10.4,3.5-14.8
			c2.3-4.4,5.6-7.9,9.8-10.5C641.4,372.4,646.3,371.1,651.7,371.1z"/>
		<path class="st0" d="M729.3,372c1.2,0,2.3,0.4,3.1,1.2c0.8,0.8,1.2,1.9,1.2,3.1v47.7c0,1.2-0.4,2.3-1.2,3.1
			c-0.8,0.9-1.9,1.3-3.1,1.3c-1.3,0-2.4-0.4-3.2-1.3c-0.8-0.9-1.2-1.9-1.2-3.1v-10.3l2.1-0.2c0,1.7-0.5,3.4-1.6,5.3
			s-2.6,3.6-4.4,5.2c-1.9,1.6-4.1,3-6.6,4c-2.5,1-5.3,1.6-8.2,1.6c-4.9,0-9.3-1.3-13.3-3.8c-3.9-2.6-7-6-9.3-10.4
			c-2.2-4.4-3.4-9.4-3.4-15.1c0-5.7,1.1-10.7,3.4-15.1c2.3-4.4,5.3-7.8,9.2-10.3c3.9-2.5,8.2-3.7,13-3.7c3.1,0,6,0.5,8.7,1.5
			c2.7,1,5,2.4,7,4.1c2,1.7,3.5,3.6,4.6,5.7c1.1,2.1,1.6,4.2,1.6,6.3l-2.8-0.6v-11.8c0-1.2,0.4-2.3,1.2-3.1
			C726.9,372.4,728,372,729.3,372z M707,421.6c3.6,0,6.8-0.9,9.5-2.8c2.7-1.9,4.9-4.4,6.5-7.6c1.6-3.2,2.4-6.8,2.4-10.9
			c0-4-0.8-7.5-2.4-10.7c-1.6-3.2-3.8-5.7-6.5-7.6c-2.7-1.9-5.9-2.8-9.5-2.8c-3.5,0-6.7,0.9-9.5,2.8c-2.8,1.8-5,4.3-6.6,7.5
			c-1.6,3.2-2.4,6.8-2.4,10.8c0,4,0.8,7.7,2.3,10.9c1.6,3.2,3.7,5.8,6.5,7.6C700.2,420.6,703.4,421.6,707,421.6z"/>
		<path d="M746.4,419.6c-0.6-0.9-0.8-1.9-0.8-3c0-1,0.6-2,1.8-2.8c0.8-0.5,1.7-0.7,2.7-0.6c1,0.1,1.9,0.5,2.7,1.4
			c2,2.4,4.3,4.3,6.9,5.7c2.6,1.4,5.8,2.1,9.5,2.1c1.7-0.1,3.4-0.4,5.1-0.9c1.8-0.5,3.2-1.4,4.4-2.7c1.2-1.3,1.8-2.9,1.8-5
			c0-2-0.6-3.6-1.8-4.8c-1.2-1.2-2.8-2.2-4.8-2.9c-2-0.8-4.1-1.4-6.3-2c-2.4-0.6-4.7-1.4-7-2.2c-2.3-0.8-4.4-1.8-6.2-3.1
			c-1.8-1.3-3.3-2.9-4.4-4.8c-1.1-1.9-1.7-4.3-1.7-7.1c0-3.2,0.9-6.1,2.7-8.4c1.8-2.4,4.1-4.2,7.1-5.5c3-1.3,6.2-1.9,9.9-1.9
			c2,0,4.1,0.2,6.3,0.7c2.2,0.5,4.3,1.3,6.4,2.4c2.1,1.1,3.9,2.7,5.5,4.6c0.6,0.7,1,1.6,1.1,2.7c0.1,1.1-0.4,2.1-1.4,2.9
			c-0.8,0.6-1.7,0.8-2.7,0.8c-1,0-1.8-0.4-2.4-1c-1.6-1.9-3.5-3.3-5.8-4.3c-2.3-1-4.8-1.5-7.5-1.5c-1.7,0-3.3,0.3-5,0.8
			c-1.7,0.5-3.1,1.4-4.2,2.5c-1.1,1.2-1.7,2.8-1.7,4.9c0.1,1.9,0.7,3.5,1.9,4.8c1.2,1.2,2.9,2.2,5,3c2.1,0.8,4.4,1.5,6.9,2.2
			c2.3,0.6,4.5,1.2,6.7,2c2.1,0.8,4.1,1.8,5.8,3c1.7,1.2,3.1,2.8,4.1,4.7c1,1.9,1.5,4.3,1.5,7.2c0,3.3-0.9,6.2-2.8,8.6
			c-1.9,2.4-4.3,4.3-7.4,5.5c-3.1,1.3-6.4,1.9-9.9,1.9c-4,0-7.9-0.7-11.8-2.2C752.5,425.9,749.2,423.3,746.4,419.6z"/>
	</g>
</g>
</svg>
